<svg width="111" height="68" viewBox="0 0 111 68" fill="none" xmlns="http://www.w3.org/2000/svg">
<path d="M3.77272 61H0.818176L9.36363 37.7273H12.2727L20.8182 61H17.8636L10.9091 41.4091H10.7273L3.77272 61ZM4.86363 51.9091H16.7727V54.4091H4.86363V51.9091Z" fill="#FF6B08"/>
<path d="M39.2585 45C39.0085 44.2348 38.679 43.5492 38.2699 42.9432C37.8684 42.3295 37.3873 41.8068 36.8267 41.375C36.2737 40.9432 35.6449 40.6136 34.9403 40.3864C34.2358 40.1591 33.4631 40.0455 32.6222 40.0455C31.2434 40.0455 29.9896 40.4015 28.8608 41.1136C27.732 41.8258 26.8343 42.875 26.1676 44.2614C25.5009 45.6477 25.1676 47.3485 25.1676 49.3636C25.1676 51.3788 25.5047 53.0795 26.179 54.4659C26.8532 55.8523 27.7661 56.9015 28.9176 57.6136C30.0691 58.3258 31.3646 58.6818 32.804 58.6818C34.1373 58.6818 35.3115 58.3977 36.3267 57.8295C37.3494 57.2538 38.1449 56.4432 38.7131 55.3977C39.2888 54.3447 39.5767 53.1061 39.5767 51.6818L40.4403 51.8636H33.4403V49.3636H42.304V51.8636C42.304 53.7803 41.8949 55.447 41.0767 56.8636C40.2661 58.2803 39.1449 59.3788 37.7131 60.1591C36.2888 60.9318 34.6525 61.3182 32.804 61.3182C30.7434 61.3182 28.9328 60.8333 27.3722 59.8636C25.8191 58.8939 24.607 57.5152 23.7358 55.7273C22.8722 53.9394 22.4403 51.8182 22.4403 49.3636C22.4403 47.5227 22.6865 45.8674 23.179 44.3977C23.679 42.9205 24.3835 41.6629 25.2926 40.625C26.2017 39.5871 27.2775 38.7917 28.5199 38.2386C29.7623 37.6856 31.1297 37.4091 32.6222 37.4091C33.8494 37.4091 34.9934 37.5947 36.054 37.9659C37.1222 38.3295 38.0729 38.8485 38.9062 39.5227C39.7472 40.1894 40.4479 40.9886 41.0085 41.9205C41.5691 42.8447 41.9555 43.8712 42.1676 45H39.2585Z" fill="#EEF2F4"/>
<path d="M46.767 61V43.5455H49.3579V46.1818H49.5398C49.8579 45.3182 50.4337 44.6174 51.267 44.0795C52.1004 43.5417 53.0398 43.2727 54.0852 43.2727C54.2822 43.2727 54.5284 43.2765 54.8239 43.2841C55.1193 43.2917 55.3428 43.303 55.4943 43.3182V46.0455C55.4034 46.0227 55.1951 45.9886 54.8693 45.9432C54.5511 45.8902 54.214 45.8636 53.8579 45.8636C53.0095 45.8636 52.2519 46.0417 51.5852 46.3977C50.9261 46.7462 50.4034 47.2311 50.017 47.8523C49.6383 48.4659 49.4489 49.1667 49.4489 49.9545V61H46.767Z" fill="#EEF2F4"/>
<path d="M63.8097 61.4091C62.7036 61.4091 61.6998 61.2008 60.7983 60.7841C59.8968 60.3598 59.1809 59.75 58.6506 58.9545C58.1203 58.1515 57.8551 57.1818 57.8551 56.0455C57.8551 55.0455 58.0521 54.2348 58.446 53.6136C58.84 52.9848 59.3665 52.4924 60.0256 52.1364C60.6847 51.7803 61.4119 51.5152 62.2074 51.3409C63.0104 51.1591 63.8172 51.0152 64.6278 50.9091C65.6884 50.7727 66.5483 50.6705 67.2074 50.6023C67.874 50.5265 68.3589 50.4015 68.6619 50.2273C68.9725 50.053 69.1278 49.75 69.1278 49.3182V49.2273C69.1278 48.1061 68.821 47.2348 68.2074 46.6136C67.6013 45.9924 66.6809 45.6818 65.446 45.6818C64.1657 45.6818 63.1619 45.9621 62.4347 46.5227C61.7074 47.0833 61.196 47.6818 60.9006 48.3182L58.3551 47.4091C58.8097 46.3485 59.4157 45.5227 60.1733 44.9318C60.9384 44.3333 61.7718 43.9167 62.6733 43.6818C63.5824 43.4394 64.4763 43.3182 65.3551 43.3182C65.9157 43.3182 66.5597 43.3864 67.2869 43.5227C68.0218 43.6515 68.7301 43.9205 69.4119 44.3295C70.1013 44.7386 70.6733 45.3561 71.1278 46.1818C71.5824 47.0076 71.8097 48.1136 71.8097 49.5V61H69.1278V58.6364H68.9915C68.8097 59.0152 68.5066 59.4205 68.0824 59.8523C67.6581 60.2841 67.0937 60.6515 66.3892 60.9545C65.6847 61.2576 64.8248 61.4091 63.8097 61.4091ZM64.2187 59C65.2794 59 66.1733 58.7917 66.9006 58.375C67.6354 57.9583 68.1884 57.4205 68.5597 56.7614C68.9384 56.1023 69.1278 55.4091 69.1278 54.6818V52.2273C69.0142 52.3636 68.7642 52.4886 68.3778 52.6023C67.9991 52.7083 67.5597 52.803 67.0597 52.8864C66.5672 52.9621 66.0862 53.0303 65.6165 53.0909C65.1543 53.1439 64.7794 53.1894 64.4915 53.2273C63.7945 53.3182 63.143 53.4659 62.5369 53.6705C61.9384 53.8674 61.4536 54.1667 61.0824 54.5682C60.7187 54.9621 60.5369 55.5 60.5369 56.1818C60.5369 57.1136 60.8816 57.8182 61.571 58.2955C62.268 58.7652 63.1506 59 64.2187 59Z" fill="#EEF2F4"/>
<path d="M76.7045 67.5455V43.5455H79.2954V46.3182H79.6136C79.8106 46.0152 80.0833 45.6288 80.4318 45.1591C80.7879 44.6818 81.2954 44.2576 81.9545 43.8864C82.6212 43.5076 83.5227 43.3182 84.6591 43.3182C86.1288 43.3182 87.4242 43.6856 88.5454 44.4205C89.6667 45.1553 90.5417 46.197 91.1704 47.5455C91.7992 48.8939 92.1136 50.4848 92.1136 52.3182C92.1136 54.1667 91.7992 55.7689 91.1704 57.125C90.5417 58.4735 89.6705 59.5189 88.5568 60.2614C87.4432 60.9962 86.1591 61.3636 84.7045 61.3636C83.5833 61.3636 82.6856 61.178 82.0114 60.8068C81.3371 60.428 80.8182 60 80.4545 59.5227C80.0909 59.0379 79.8106 58.6364 79.6136 58.3182H79.3864V67.5455H76.7045ZM79.3409 52.2727C79.3409 53.5909 79.5341 54.7538 79.9204 55.7614C80.3068 56.7614 80.8712 57.5455 81.6136 58.1136C82.3561 58.6742 83.2651 58.9545 84.3409 58.9545C85.4621 58.9545 86.3977 58.6591 87.1477 58.0682C87.9053 57.4697 88.4735 56.6667 88.8523 55.6591C89.2386 54.6439 89.4318 53.5152 89.4318 52.2727C89.4318 51.0455 89.2424 49.9394 88.8636 48.9545C88.4924 47.9621 87.928 47.178 87.1704 46.6023C86.4204 46.0189 85.4773 45.7273 84.3409 45.7273C83.25 45.7273 82.3333 46.0038 81.5909 46.5568C80.8485 47.1023 80.2879 47.8674 79.9091 48.8523C79.5303 49.8295 79.3409 50.9697 79.3409 52.2727Z" fill="#EEF2F4"/>
<path d="M98.8864 50.5V61H96.2045V37.7273H98.8864V46.2727H99.1136C99.5227 45.3712 100.136 44.6553 100.955 44.125C101.78 43.5871 102.879 43.3182 104.25 43.3182C105.439 43.3182 106.481 43.5568 107.375 44.0341C108.269 44.5038 108.962 45.2273 109.455 46.2045C109.955 47.1742 110.205 48.4091 110.205 49.9091V61H107.523V50.0909C107.523 48.7045 107.163 47.6326 106.443 46.875C105.731 46.1098 104.742 45.7273 103.477 45.7273C102.598 45.7273 101.811 45.9129 101.114 46.2841C100.424 46.6553 99.8788 47.197 99.4773 47.9091C99.0833 48.6212 98.8864 49.4848 98.8864 50.5Z" fill="#EEF2F4"/>
<path d="M92 14C92 15.1046 91.1046 16 90 16C88.8954 16 88 15.1046 88 14C88 12.8954 88.8954 12 90 12C91.1046 12 92 12.8954 92 14Z" fill="#EEF2F4"/>
<path d="M106 4C106 5.10457 105.105 6 104 6C102.895 6 102 5.10457 102 4C102 2.89543 102.895 2 104 2C105.105 2 106 2.89543 106 4Z" fill="#EEF2F4"/>
<path d="M107 39C107 40.1046 106.105 41 105 41C103.895 41 103 40.1046 103 39C103 37.8954 103.895 37 105 37C106.105 37 107 37.8954 107 39Z" fill="#EEF2F4"/>
<path d="M79 37C79 38.1046 78.1046 39 77 39C75.8954 39 75 38.1046 75 37C75 35.8954 75.8954 35 77 35C78.1046 35 79 35.8954 79 37Z" fill="#EEF2F4"/>
<path d="M93 29C93 30.1046 92.1046 31 91 31C89.8954 31 89 30.1046 89 29C89 27.8954 89.8954 27 91 27C92.1046 27 93 27.8954 93 29Z" fill="#EEF2F4"/>
<path d="M80 2C80 3.10457 79.1046 4 78 4C76.8954 4 76 3.10457 76 2C76 0.89543 76.8954 0 78 0C79.1046 0 80 0.89543 80 2Z" fill="#EEF2F4"/>
<path d="M47 38C47 39.1046 46.1046 40 45 40C43.8954 40 43 39.1046 43 38C43 36.8954 43.8954 36 45 36C46.1046 36 47 36.8954 47 38Z" fill="#EEF2F4"/>
<path d="M66 24C66 25.1046 65.1046 26 64 26C62.8954 26 62 25.1046 62 24C62 22.8954 62.8954 22 64 22C65.1046 22 66 22.8954 66 24Z" fill="#EEF2F4"/>
<path d="M57 7C57 8.10457 56.1046 9 55 9C53.8954 9 53 8.10457 53 7C53 5.89543 53.8954 5 55 5C56.1046 5 57 5.89543 57 7Z" fill="#EEF2F4"/>
<path d="M8.90934 18.0413L9.18246 17.9171L19.1824 39.9171L18.9093 40.0412L8.90934 18.0413Z" fill="#FAAF7E"/>
<path d="M31.9164 19.9459L32.1679 20.1094L19.168 40.1092L18.9165 39.9457L31.9164 19.9459Z" fill="#FAAF7E"/>
<path d="M16.9121 2.95312L17.1768 3.0943L9.17681 18.0943L8.9121 17.9531L16.9121 2.95312Z" fill="#FAAF7E"/>
<path d="M19.0994 39.9943L18.7999 40.0105L16.7999 3.01082L17.0995 2.99462L19.0994 39.9943Z" fill="#FAAF7E"/>
<path d="M32.0749 19.9343L31.8499 20.1328L16.8497 3.13258L17.0747 2.9341L32.0749 19.9343Z" fill="#FAAF7E"/>
<path d="M32.0087 19.9008L31.9828 20.1996L8.98263 18.1996L9.00862 17.9008L32.0087 19.9008Z" fill="#FAAF7E"/>
<path d="M55.0002 7L55.1478 7.26117L32.1476 20.2613L32 20.0001L55.0002 7Z" fill="#EEF2F4"/>
<path d="M54.9053 6.96919L55.1908 7.06129L45.1907 38.0615L44.9052 37.9694L54.9053 6.96919Z" fill="#EEF2F4"/>
<path d="M63.9407 23.92L64.1187 24.1615L45.1189 38.1613L44.9409 37.9198L63.9407 23.92Z" fill="#EEF2F4"/>
<path d="M76.9969 36.9004L77.0063 37.2003L45.0063 38.2003L44.9969 37.9004L76.9969 36.9004Z" fill="#EEF2F4"/>
<path d="M64.088 23.9534L63.8229 24.0937L54.8229 7.09376L55.088 6.95339L64.088 23.9534Z" fill="#EEF2F4"/>
<path d="M45.0805 37.9413L44.8373 38.1169L31.8375 20.1173L32.0807 19.9417L45.0805 37.9413Z" fill="#EEF2F4"/>
<path d="M77.0704 36.9296L76.8583 37.1417L63.8583 24.1417L64.0704 23.9296L77.0704 36.9296Z" fill="#EEF2F4"/>
<path d="M77.9161 1.94624L78.1692 2.1073L64.1691 24.1076L63.916 23.9465L77.9161 1.94624Z" fill="#EEF2F4"/>
<path d="M77.9787 1.90268L78.0425 2.19584L55.0426 7.19582L54.9788 6.90266L77.9787 1.90268Z" fill="#EEF2F4"/>
<path d="M89.9639 13.9071L90.0716 14.1872L64.0719 24.187L63.9642 23.907L89.9639 13.9071Z" fill="#EEF2F4"/>
<path d="M90.0705 13.9297L89.8584 14.1418L77.8583 2.1417L78.0704 1.92957L90.0705 13.9297Z" fill="#EEF2F4"/>
<path d="M90.951 28.9133L91.0998 29.1737L77.0994 37.174L76.9506 36.9135L90.951 28.9133Z" fill="#EEF2F4"/>
<path d="M91.0994 28.9933L90.8 29.0132L89.8 14.0133L90.0994 13.9934L91.0994 28.9933Z" fill="#EEF2F4"/>
<path d="M104.008 3.90071L103.985 4.19983L77.9846 2.1998L78.0076 1.90068L104.008 3.90071Z" fill="#EEF2F4"/>
<path d="M91.0885 29.0457L90.8223 28.9073L103.822 3.90755L104.088 4.04595L91.0885 29.0457Z" fill="#EEF2F4"/>
<path d="M105.058 38.9192L104.884 39.1633L90.8835 29.1631L91.0579 28.9189L105.058 38.9192Z" fill="#EEF2F4"/>
<path d="M105.007 38.9006L104.986 39.1999L76.9857 37.1999L77.0071 36.9006L105.007 38.9006Z" fill="#EEF2F4"/>
<path d="M103.9 4.00248L104.2 3.99391L105.2 38.9943L104.9 39.0028L103.9 4.00248Z" fill="#EEF2F4"/>
<path d="M19 3C19 4.10457 18.1046 5 17 5C15.8954 5 15 4.10457 15 3C15 1.89543 15.8954 1 17 1C18.1046 1 19 1.89543 19 3Z" fill="#FF6B08"/>
<path d="M11 18C11 19.1046 10.1046 20 8.99999 20C7.89542 20 6.99999 19.1046 6.99999 18C6.99999 16.8954 7.89542 16 8.99999 16C10.1046 16 11 16.8954 11 18Z" fill="#FF6B08"/>
<path d="M34 20C34 21.1046 33.1046 22 32 22C30.8954 22 30 21.1046 30 20C30 18.8954 30.8954 18 32 18C33.1046 18 34 18.8954 34 20Z" fill="#FF6B08"/>
<path d="M21 40C21 41.1046 20.1046 42 19 42C17.8954 42 17 41.1046 17 40C17 38.8954 17.8954 38 19 38C20.1046 38 21 38.8954 21 40Z" fill="#FF6B08"/>
</svg>
